# xmcd CD database file
#
# Track frame offsets:
#	150
#	6991
#	30329
#	45056
#	73017
#	95380
#	116758
#	141861
#	144651
#	161573
#	173140
#	199441
#	216998
#	231290
#
# Disc length: 3173 seconds
#
# Revision: 0
# Processed by: cddbd v1.5.2PL0 Copyright (c) Steve Scherf et al.
# Submitted via: CDex 1.51
#
DISCID=c50c630e
DTITLE=John Coffee*** - My Way
DYEAR=2007
DGENRE=Jazz
TTITLE0=Gettin' into it
TTITLE1=Hit the Road Jack
TTITLE2=Something in the Way
TTITLE3=Sweet Home
TTITLE4=Halleluja
TTITLE5=Like a Prayer
TTITLE6=Sweet Eileen
TTITLE7=Spider on my keys (livejam)
TTITLE8=Drunken Singer
TTITLE9=The Letter
TTITLE10=Light my Fire
TTITLE11=Imagine
TTITLE12=Wicked Game (livejam)
TTITLE13=Gettin' out of it
EXTD=YEAR: 2007
EXTT0=
EXTT1=
EXTT2=
EXTT3=
EXTT4=
EXTT5=
EXTT6=
EXTT7=
EXTT8=
EXTT9=
EXTT10=
EXTT11=
EXTT12=
EXTT13=
PLAYORDER=
